<svg width="256" height="256" viewBox="0 0 256 256" fill="none" xmlns="http://www.w3.org/2000/svg">
<g clip-path="url(#clip0_2_97)">
<path d="M47.648 71.9095C47.648 71.9031 47.6544 71.8919 47.6544 71.8855C36.5317 87.7804 30 107.123 30 127.995C30 154.187 40.2777 177.962 57.0151 195.539C57.0215 195.55 57.0279 195.55 57.0335 195.557C79.0402 213.94 128.033 216.005 151.933 194.683C158.995 188.387 163.165 182.358 165.229 175.989V175.983C167.433 169.213 167.244 162.056 165.599 153.799C164.008 148.887 161.926 144.461 159.394 140.763C155.169 134.607 149.736 129.398 143.362 125.215C151.308 131.433 150.774 142.901 144.94 149.288C136.914 158.091 121.506 155.862 113.116 152.53C99.5901 147.151 89.3732 133.527 85.5728 123.473C73.03 90.3059 90.7693 49.0148 133.964 30.1826C131.991 30.0608 130.006 30 128.008 30C94.7452 30 65.3625 46.5741 47.648 71.9095Z" fill="url(#paint0_linear_2_97)"/>
<path d="M47.6496 71.9096L47.6432 71.916C44.8687 80.288 43.3629 89.2375 43.3629 98.5386C43.3629 145.281 81.2572 183.178 127.997 183.178C140.157 183.178 154.278 180.609 165.223 175.989H165.229V175.983C167.433 169.213 167.245 162.056 165.6 153.799C164.009 148.887 161.927 144.461 159.396 140.763C155.17 134.607 149.737 129.398 143.362 125.215C151.309 131.433 150.775 142.901 144.94 149.288C136.915 158.091 121.507 155.862 113.117 152.53C99.5908 147.151 89.374 133.527 85.5735 123.473C73.0315 90.306 90.77 49.0148 133.965 30.1827C131.991 30.0609 130.007 30 128.009 30C94.7467 30 65.3633 46.5742 47.6496 71.9096Z" fill="url(#paint1_linear_2_97)"/>
<mask id="mask0_2_97" style="mask-type:luminance" maskUnits="userSpaceOnUse" x="-110" y="-137" width="938" height="626">
<path d="M-109.908 -136.676H827.197V488.099H-109.908V-136.676Z" fill="white"/>
</mask>
<g mask="url(#mask0_2_97)">
<path d="M165.599 153.799C164.008 148.887 161.926 144.461 159.394 140.764C155.169 134.607 149.736 129.398 143.362 125.216C151.308 131.432 150.774 142.901 144.94 149.288C136.914 158.091 121.506 155.863 113.116 152.53C99.5901 147.151 89.3732 133.527 85.5727 123.473C73.0299 90.306 90.7693 49.0148 133.963 30.1818C133.09 30.1281 132.213 30.0913 131.335 30.0617C130.474 30.0336 129.612 30.0176 128.748 30.0112C102.621 34.9004 80.0574 50.8098 65.441 73.0878C65.441 73.0814 65.4474 73.0686 65.4474 73.0622C54.3255 90.0016 47.7938 110.616 47.7938 132.861C47.7938 159.595 56.2293 183.863 74.7239 205.175C99.1992 213.729 133.24 211.358 151.933 194.683C158.994 188.387 163.164 182.358 165.229 175.989V175.983C167.432 169.213 167.244 162.056 165.599 153.799Z" fill="url(#paint2_linear_2_97)"/>
</g>
<mask id="mask1_2_97" style="mask-type:luminance" maskUnits="userSpaceOnUse" x="-110" y="-137" width="938" height="626">
<path d="M-109.908 -136.676H827.197V488.099H-109.908V-136.676Z" fill="white"/>
</mask>
<g mask="url(#mask1_2_97)">
<mask id="mask2_2_97" style="mask-type:luminance" maskUnits="userSpaceOnUse" x="129" y="125" width="38" height="82">
<path d="M129.693 125.215H166.858V206.516H129.693V125.215Z" fill="white"/>
</mask>
<g mask="url(#mask2_2_97)">
<path d="M159.395 140.763C155.17 134.607 149.736 129.398 143.361 125.215C149.556 130.061 150.596 138.098 147.991 144.433C148.137 144.638 148.287 144.84 148.43 145.049C150.962 148.746 153.043 153.165 154.634 158.066V158.078C154.634 158.083 154.64 158.09 154.64 158.095C157.822 174.111 155.533 185.975 140.969 198.968C137.648 201.929 133.842 204.438 129.693 206.515C138.156 204.003 145.858 200.103 151.934 194.682C158.994 188.387 163.165 182.357 165.229 175.989V175.983C167.433 169.214 167.245 162.055 165.6 153.799C164.009 148.887 161.927 144.461 159.395 140.763Z" fill="#BBBBBB"/>
</g>
</g>
<mask id="mask3_2_97" style="mask-type:luminance" maskUnits="userSpaceOnUse" x="-110" y="-137" width="938" height="626">
<path d="M-109.908 -136.676H827.197V488.099H-109.908V-136.676Z" fill="white"/>
</mask>
<g mask="url(#mask3_2_97)">
<mask id="mask4_2_97" style="mask-type:luminance" maskUnits="userSpaceOnUse" x="59" y="90" width="25" height="27">
<path d="M59.8793 90.6104H83.4423V116.589H59.8793V90.6104Z" fill="white"/>
</mask>
<g mask="url(#mask4_2_97)">
<path d="M82.6006 90.6108C76.0216 94.0615 68.8452 95.5554 59.8794 98.0168C59.8858 98.0729 61.1649 112.272 83.4424 116.589C81.3543 108.144 81.0948 99.332 82.6006 90.6108Z" fill="#BBBBBB"/>
</g>
</g>
<path d="M153.937 54.6978C121.02 52.0689 111.55 82.5948 70.845 93.9545C70.8506 94.0146 72.3692 111.403 102.31 112.842C126.866 114.026 147.732 123.758 159.394 140.763C161.926 144.461 164.009 148.881 165.599 153.781V153.793C165.599 153.799 165.605 153.805 165.605 153.81C168.786 169.827 166.498 181.69 151.933 194.683C128.012 216.019 78.9626 213.935 56.9814 195.515C74.8345 214.293 100.054 226 128.007 226C182.127 226 226 182.124 226 128.001C226 82.4466 194.919 44.1551 152.808 33.1711C152.431 35.353 151.163 44.4403 153.937 54.6978Z" fill="url(#paint3_linear_2_97)"/>
<path d="M153.935 54.697C121.02 52.0705 111.548 82.5988 70.8409 93.9553C86.0196 102.109 98.8468 99.6135 113.765 97.1184C123.891 95.4251 134.98 93.7318 148.42 95.3674C190.822 100.531 216.773 131.821 212.663 177.378C221.138 162.878 226 146.009 226 128.001C226 82.4466 194.919 44.1551 152.809 33.1711C152.433 35.3514 151.164 44.4379 153.935 54.697Z" fill="url(#paint4_linear_2_97)"/>
<mask id="mask5_2_97" style="mask-type:luminance" maskUnits="userSpaceOnUse" x="-110" y="-137" width="938" height="626">
<path d="M-109.908 -136.676H827.197V488.099H-109.908V-136.676Z" fill="white"/>
</mask>
<g mask="url(#mask5_2_97)">
<path d="M152.808 33.1711C152.433 35.3514 151.164 44.4379 153.935 54.697C129.997 52.7866 118.456 68.4124 98.283 81.4462V81.447C114.073 81.1106 129.956 74.564 152.393 77.2962C194.795 82.4586 230.642 123.472 212.663 177.378C221.138 162.878 226 146.009 226 128.001C226 82.4466 194.919 44.1551 152.808 33.1711Z" fill="url(#paint5_linear_2_97)"/>
</g>
<mask id="mask6_2_97" style="mask-type:luminance" maskUnits="userSpaceOnUse" x="-110" y="-137" width="938" height="626">
<path d="M-109.908 -136.676H827.197V488.099H-109.908V-136.676Z" fill="white"/>
</mask>
<g mask="url(#mask6_2_97)">
<path d="M178.96 150.616C174.195 133.031 149.44 111.493 102.31 112.842C126.867 114.026 147.732 123.758 159.394 140.764C161.926 144.461 164.008 148.881 165.599 153.781V153.793C165.599 153.799 165.605 153.805 165.605 153.811C168.786 169.827 166.498 181.69 151.933 194.683C142.164 203.397 128.204 208.203 113.608 209.586C134.11 211.504 152.47 203.832 166.131 192.428C181.113 179.92 182.647 164.22 178.96 150.616Z" fill="url(#paint6_linear_2_97)"/>
</g>
<g opacity="0.800003">
<path d="M152.808 33.1709C152.752 33.4961 152.677 33.9783 152.597 34.5919C193.788 46.9921 223.796 85.2131 223.796 130.449C223.796 146.922 219.811 162.461 212.761 176.165C212.729 176.569 212.7 176.972 212.663 177.378C221.138 162.878 226 146.008 226 128.001C226 82.4465 194.919 44.155 152.808 33.1709Z" fill="url(#paint7_radial_2_97)"/>
</g>
</g>
<defs>
<linearGradient id="paint0_linear_2_97" x1="172.218" y1="167.491" x2="56.573" y2="85.2863" gradientUnits="userSpaceOnUse">
<stop stop-color="#F7FF62"/>
<stop offset="1" stop-color="white"/>
</linearGradient>
<linearGradient id="paint1_linear_2_97" x1="107.39" y1="187.583" x2="100.934" y2="31.0318" gradientUnits="userSpaceOnUse">
<stop stop-color="#F7FF62"/>
<stop offset="1" stop-color="white"/>
</linearGradient>
<linearGradient id="paint2_linear_2_97" x1="182.702" y1="183.92" x2="101.031" y2="114.887" gradientUnits="userSpaceOnUse">
<stop stop-color="#F7FF62"/>
<stop offset="1" stop-color="white"/>
</linearGradient>
<linearGradient id="paint3_linear_2_97" x1="93.4592" y1="221.066" x2="189.976" y2="50.4488" gradientUnits="userSpaceOnUse">
<stop stop-color="#F7FF62"/>
<stop offset="1" stop-color="white"/>
</linearGradient>
<linearGradient id="paint4_linear_2_97" x1="141.072" y1="136.879" x2="189.968" y2="50.4441" gradientUnits="userSpaceOnUse">
<stop stop-color="#F7FF62"/>
<stop offset="1" stop-color="#BBBBBB"/>
</linearGradient>
<linearGradient id="paint5_linear_2_97" x1="148.787" y1="141.244" x2="197.682" y2="54.8084" gradientUnits="userSpaceOnUse">
<stop stop-color="#F7FF62"/>
<stop offset="1" stop-color="#BBBBBB"/>
</linearGradient>
<linearGradient id="paint6_linear_2_97" x1="106.072" y1="205.322" x2="190.548" y2="55.9893" gradientUnits="userSpaceOnUse">
<stop stop-color="#F7FF62"/>
<stop offset="1" stop-color="white"/>
</linearGradient>
<radialGradient id="paint7_radial_2_97" cx="0" cy="0" r="1" gradientUnits="userSpaceOnUse" gradientTransform="translate(189.299 105.275) scale(57.2071 57.2106)">
<stop stop-color="#F7FF62"/>
<stop offset="1" stop-color="white"/>
</radialGradient>
<clipPath id="clip0_2_97">
<rect width="196" height="196" fill="white" transform="translate(30 30)"/>
</clipPath>
</defs>
</svg>
