<svg width="55" height="55" viewBox="0 0 55 55" fill="none" xmlns="http://www.w3.org/2000/svg">
<g clip-path="url(#clip0_2_96)">
<path d="M9.05184 14.6221C9.05184 14.6206 9.05331 14.618 9.05331 14.6165C6.49962 18.2659 5 22.7067 5 27.4988C5 33.5122 7.35968 38.9707 11.2024 43.0062C11.2039 43.0088 11.2054 43.0088 11.2067 43.0105C16.2592 47.231 27.5076 47.7051 32.9949 42.8096C34.6161 41.3642 35.5736 39.98 36.0475 38.5178V38.5165C36.5534 36.9622 36.5102 35.3188 36.1325 33.4232C35.7673 32.2953 35.2891 31.2792 34.7079 30.4302C33.7378 29.0169 32.4905 27.821 31.0269 26.8605C32.8513 28.2881 32.7286 30.921 31.3892 32.3874C29.5466 34.4085 26.0091 33.8969 24.0829 33.1319C20.9773 31.8968 18.6316 28.7688 17.7591 26.4605C14.8793 18.8457 18.9521 9.36561 28.8693 5.04192C28.4162 5.01397 27.9606 4.99998 27.5019 4.99998C19.865 4.99998 13.1189 8.80527 9.05184 14.6221Z" fill="url(#paint0_linear_2_96)"/>
<path d="M9.05223 14.622L9.05076 14.6235C8.41377 16.5456 8.06805 18.6004 8.06805 20.7358C8.06805 31.4676 16.7683 40.1683 27.4994 40.1683C30.2912 40.1683 33.5332 39.5785 36.0462 38.5178H36.0475V38.5165C36.5536 36.9621 36.5104 35.3188 36.1327 33.4232C35.7675 32.2953 35.2893 31.2792 34.7083 30.4302C33.738 29.0169 32.4907 27.821 31.0271 26.8605C32.8517 28.2881 32.729 30.921 31.3894 32.3874C29.5468 34.4085 26.0093 33.8969 24.0831 33.1319C20.9775 31.8968 18.6318 28.7688 17.7593 26.4605C14.8797 18.8457 18.9523 9.36561 28.8695 5.04191C28.4164 5.01396 27.9608 4.99998 27.5021 4.99998C19.8654 4.99998 13.1192 8.80526 9.05223 14.622Z" fill="url(#paint1_linear_2_96)"/>
<mask id="mask0_2_96" style="mask-type:luminance" maskUnits="userSpaceOnUse" x="-28" y="-34" width="217" height="145">
<path d="M-27.1218 -33.2672H188.03V110.176H-27.1218V-33.2672Z" fill="white"/>
</mask>
<g mask="url(#mask0_2_96)">
<path d="M36.1325 33.4232C35.7673 32.2955 35.2892 31.2793 34.7079 30.4304C33.7379 29.0169 32.4903 27.821 31.0269 26.8607C32.8513 28.2879 32.7287 30.921 31.3892 32.3874C29.5466 34.4085 26.0091 33.8971 24.0829 33.1319C20.9773 31.8968 18.6316 28.7688 17.7591 26.4605C14.8793 18.8457 18.9522 9.36562 28.8692 5.04174C28.6687 5.02942 28.4674 5.02097 28.2656 5.01416C28.0681 5.00773 27.8701 5.00404 27.6717 5.00257C21.6732 6.1251 16.4928 9.77775 13.137 14.8926C13.137 14.8911 13.1385 14.8882 13.1385 14.8867C10.585 18.7758 9.08533 23.5087 9.08533 28.616C9.08533 34.7539 11.0221 40.3255 15.2683 45.2186C20.8876 47.1825 28.7031 46.6383 32.9949 42.8097C34.6159 41.3642 35.5734 39.98 36.0475 38.5178V38.5163C36.5534 36.9622 36.5102 35.3188 36.1325 33.4232Z" fill="url(#paint2_linear_2_96)"/>
</g>
<mask id="mask1_2_96" style="mask-type:luminance" maskUnits="userSpaceOnUse" x="-28" y="-34" width="217" height="145">
<path d="M-27.1218 -33.2672H188.03V110.176H-27.1218V-33.2672Z" fill="white"/>
</mask>
<g mask="url(#mask1_2_96)">
<mask id="mask2_2_96" style="mask-type:luminance" maskUnits="userSpaceOnUse" x="27" y="26" width="10" height="20">
<path d="M27.8887 26.8605H36.4215V45.5264H27.8887V26.8605Z" fill="white"/>
</mask>
<g mask="url(#mask2_2_96)">
<path d="M34.7079 30.4303C33.7379 29.0168 32.4904 27.8209 31.0268 26.8606C32.449 27.9732 32.6879 29.8185 32.0897 31.2728C32.1232 31.3198 32.1577 31.3664 32.1905 31.4142C32.7718 32.2631 33.2497 33.2776 33.6149 34.4028V34.4055C33.6149 34.4068 33.6164 34.4083 33.6164 34.4096C34.3468 38.0867 33.8212 40.8104 30.4775 43.7935C29.7151 44.4734 28.8413 45.0495 27.8887 45.5264C29.8317 44.9495 31.6 44.0542 32.995 42.8096C34.616 41.3643 35.5735 39.9799 36.0474 38.5179V38.5164C36.5535 36.9623 36.5103 35.3188 36.1325 33.4231C35.7673 32.2954 35.2892 31.2792 34.7079 30.4303Z" fill="#1D1D1B"/>
</g>
</g>
<mask id="mask3_2_96" style="mask-type:luminance" maskUnits="userSpaceOnUse" x="-28" y="-34" width="217" height="145">
<path d="M-27.1218 -33.2672H188.03V110.176H-27.1218V-33.2672Z" fill="white"/>
</mask>
<g mask="url(#mask3_2_96)">
<mask id="mask4_2_96" style="mask-type:luminance" maskUnits="userSpaceOnUse" x="11" y="18" width="7" height="7">
<path d="M11.86 18.9156H17.2699V24.88H11.86V18.9156Z" fill="white"/>
</mask>
<g mask="url(#mask4_2_96)">
<path d="M17.0766 18.9157C15.5662 19.7079 13.9185 20.0509 11.86 20.616C11.8615 20.6289 12.1552 23.8889 17.2699 24.8801C16.7905 22.9411 16.7309 20.918 17.0766 18.9157Z" fill="#1D1D1B"/>
</g>
</g>
<path d="M33.4549 10.6704C25.8975 10.0668 23.7232 17.0753 14.3777 19.6834C14.379 19.6972 14.7277 23.6895 21.6019 24.0198C27.2398 24.2916 32.0305 26.526 34.7079 30.4302C35.2892 31.2793 35.7673 32.294 36.1325 33.4189V33.4217C36.1325 33.4232 36.1338 33.4245 36.1338 33.4257C36.8642 37.103 36.3388 39.8266 32.995 42.8097C27.5027 47.7084 16.2415 47.2299 11.1948 43.0007C15.2937 47.3119 21.0838 49.9998 27.5016 49.9998C39.9271 49.9998 50.0001 39.9263 50.0001 27.5001C50.0001 17.0413 42.864 8.24989 33.1958 5.72805C33.1092 6.229 32.8181 8.31536 33.4549 10.6704Z" fill="url(#paint3_linear_2_96)"/>
<path d="M33.4545 10.6702C25.8975 10.0672 23.7228 17.0762 14.3768 19.6836C17.8617 21.5555 20.8067 20.9827 24.2318 20.4098C26.5566 20.021 29.1025 19.6323 32.1884 20.0078C41.9235 21.1932 47.8816 28.3771 46.9381 38.8367C48.8838 35.5077 50 31.6346 50 27.5001C50 17.0413 42.8641 8.2499 33.1959 5.72807C33.1097 6.22864 32.8182 8.31482 33.4545 10.6702Z" fill="url(#paint4_linear_2_96)"/>
<mask id="mask5_2_96" style="mask-type:luminance" maskUnits="userSpaceOnUse" x="-28" y="-34" width="217" height="145">
<path d="M-27.1218 -33.2672H188.03V110.176H-27.1218V-33.2672Z" fill="white"/>
</mask>
<g mask="url(#mask5_2_96)">
<path d="M33.1958 5.72807C33.1097 6.22864 32.8182 8.31482 33.4545 10.6702C27.9586 10.2316 25.3087 13.8192 20.6772 16.8116V16.8118C24.3025 16.7345 27.9492 15.2315 33.1005 15.8588C42.8357 17.044 51.0659 26.4603 46.9381 38.8367C48.8838 35.5077 50 31.6346 50 27.5001C50 17.0413 42.864 8.2499 33.1958 5.72807Z" fill="url(#paint5_linear_2_96)"/>
</g>
<mask id="mask6_2_96" style="mask-type:luminance" maskUnits="userSpaceOnUse" x="-28" y="-34" width="217" height="145">
<path d="M-27.1218 -33.2672H188.03V110.176H-27.1218V-33.2672Z" fill="white"/>
</mask>
<g mask="url(#mask6_2_96)">
<path d="M39.2001 32.6923C38.106 28.655 32.4225 23.7101 21.6018 24.0198C27.2399 24.2916 32.0304 26.526 34.7079 30.4304C35.2891 31.2792 35.7673 32.294 36.1325 33.4189V33.4217C36.1325 33.4232 36.1337 33.4245 36.1337 33.4259C36.8642 37.103 36.3388 39.8266 32.9949 42.8097C30.752 44.8103 27.5468 45.9137 24.1958 46.2313C28.9028 46.6718 33.1181 44.9102 36.2546 42.292C39.6944 39.4204 40.0466 35.8157 39.2001 32.6923Z" fill="url(#paint6_linear_2_96)"/>
</g>
<g opacity="0.800003">
<path d="M33.1958 5.72804C33.1829 5.8027 33.1656 5.91341 33.1472 6.05427C42.6045 8.90124 49.494 17.6765 49.494 28.0623C49.494 31.8442 48.5791 35.4119 46.9605 38.5582C46.9532 38.6509 46.9465 38.7434 46.9381 38.8366C48.8838 35.5077 50 31.6345 50 27.5001C50 17.0413 42.864 8.24987 33.1958 5.72804Z" fill="url(#paint7_radial_2_96)"/>
</g>
</g>
<defs>
<linearGradient id="paint0_linear_2_96" x1="37.6521" y1="36.5667" x2="11.101" y2="17.6932" gradientUnits="userSpaceOnUse">
<stop stop-color="#F7FF62"/>
<stop offset="1" stop-color="#1D1D1B"/>
</linearGradient>
<linearGradient id="paint1_linear_2_96" x1="22.7683" y1="41.1796" x2="21.286" y2="5.23687" gradientUnits="userSpaceOnUse">
<stop stop-color="#F7FF62"/>
<stop offset="1" stop-color="#1D1D1B"/>
</linearGradient>
<linearGradient id="paint2_linear_2_96" x1="40.0592" y1="40.3386" x2="21.3082" y2="24.4892" gradientUnits="userSpaceOnUse">
<stop stop-color="#F7FF62"/>
<stop offset="1" stop-color="#1D1D1B"/>
</linearGradient>
<linearGradient id="paint3_linear_2_96" x1="19.5697" y1="48.8671" x2="41.7291" y2="9.6948" gradientUnits="userSpaceOnUse">
<stop stop-color="#F7FF62"/>
<stop offset="1" stop-color="#1D1D1B"/>
</linearGradient>
<linearGradient id="paint4_linear_2_96" x1="30.5012" y1="29.5386" x2="41.7272" y2="9.69377" gradientUnits="userSpaceOnUse">
<stop stop-color="#F7FF62"/>
<stop offset="1" stop-color="#1D1D1B"/>
</linearGradient>
<linearGradient id="paint5_linear_2_96" x1="32.2725" y1="30.5406" x2="43.4985" y2="10.6958" gradientUnits="userSpaceOnUse">
<stop stop-color="#F7FF62"/>
<stop offset="1" stop-color="#1D1D1B"/>
</linearGradient>
<linearGradient id="paint6_linear_2_96" x1="22.4654" y1="45.2525" x2="41.8604" y2="10.9668" gradientUnits="userSpaceOnUse">
<stop stop-color="#F7FF62"/>
<stop offset="1" stop-color="#1D1D1B"/>
</linearGradient>
<radialGradient id="paint7_radial_2_96" cx="0" cy="0" r="1" gradientUnits="userSpaceOnUse" gradientTransform="translate(41.5737 22.2824) scale(13.1343 13.135)">
<stop stop-color="#F7FF62"/>
<stop offset="1" stop-color="#1D1D1B"/>
</radialGradient>
<clipPath id="clip0_2_96">
<rect width="45" height="44.9998" fill="white" transform="translate(5 5)"/>
</clipPath>
</defs>
</svg>
