<svg width="142" height="42" viewBox="0 0 142 42" fill="none" xmlns="http://www.w3.org/2000/svg">
<g clip-path="url(#clip0_5_141)">
<g clip-path="url(#clip1_5_141)">
<g clip-path="url(#clip2_5_141)">
<path d="M3.78172 8.98066C3.78172 8.97928 3.78309 8.97688 3.78309 8.9755C1.39965 12.3816 0 16.5264 0 20.999C0 26.6115 2.20237 31.7062 5.78894 35.4727C5.79032 35.4751 5.79169 35.4751 5.79289 35.4766C10.5086 39.4158 21.0071 39.8583 26.1286 35.2892C27.6417 33.9401 28.5354 32.6481 28.9777 31.2834V31.2822C29.4498 29.8315 29.4095 28.2977 29.057 26.5284C28.7161 25.4758 28.2699 24.5274 27.7273 23.735C26.822 22.4159 25.6578 21.2997 24.2918 20.4032C25.9945 21.7357 25.8801 24.1931 24.6299 25.5617C22.9102 27.4481 19.6085 26.9706 17.8107 26.2565C14.9122 25.1038 12.7228 22.1844 11.9084 20.0299C9.22071 12.9227 13.022 4.07463 22.278 0.039162C21.8552 0.0130725 21.4299 2.30169e-05 21.0018 2.30169e-05C13.874 2.30169e-05 7.57768 3.55163 3.78172 8.98066Z" fill="url(#paint0_linear_5_141)"/>
<path d="M3.78209 8.98064L3.78072 8.98201C3.18619 10.776 2.86353 12.6938 2.86353 14.6869C2.86353 24.7032 10.9837 32.8239 20.9994 32.8239C23.6051 32.8239 26.631 32.2734 28.9765 31.2834H28.9777V31.2822C29.45 29.8315 29.4097 28.2977 29.0572 26.5284C28.7163 25.4757 28.2701 24.5274 27.7277 23.7349C26.8222 22.4159 25.658 21.2997 24.292 20.4032C25.9949 21.7357 25.8804 24.1931 24.6301 25.5617C22.9104 27.4481 19.6087 26.9706 17.8109 26.2565C14.9124 25.1038 12.723 22.1843 11.9087 20.0299C9.22108 12.9227 13.0222 4.07461 22.2783 0.0391459C21.8554 0.0130564 21.4301 6.91054e-06 21.002 6.91054e-06C13.8743 6.91054e-06 7.57788 3.55162 3.78209 8.98064Z" fill="url(#paint1_linear_5_141)"/>
<mask id="mask0_5_141" style="mask-type:luminance" maskUnits="userSpaceOnUse" x="-30" y="-36" width="201" height="135">
<path d="M-29.9803 -35.7162H170.828V98.1642H-29.9803V-35.7162Z" fill="white"/>
</mask>
<g mask="url(#mask0_5_141)">
<path d="M29.057 26.5285C28.7161 25.4759 28.2699 24.5275 27.7274 23.7352C26.822 22.4159 25.6577 21.2997 24.2918 20.4034C25.9946 21.7355 25.8801 24.1931 24.6299 25.5618C22.9102 27.4481 19.6085 26.9708 17.8107 26.2566C14.9122 25.1038 12.7229 22.1844 11.9085 20.0299C9.22074 12.9228 13.022 4.07465 22.2779 0.0390103C22.0908 0.0275103 21.9029 0.0196211 21.7146 0.0132704C21.5303 0.00726291 21.3454 0.00382161 21.1602 0.00244848C15.5616 1.05015 10.7266 4.4593 7.59453 9.23317C7.59453 9.2318 7.59591 9.22904 7.59591 9.22767C5.21264 12.8575 3.81299 17.2749 3.81299 22.0417C3.81299 27.7705 5.62061 32.9707 9.58374 37.5375C14.8284 39.3705 22.1229 38.8626 26.1286 35.2892C27.6415 33.9401 28.5352 32.6482 28.9777 31.2834V31.2821C29.4499 29.8315 29.4095 28.2977 29.057 26.5285Z" fill="url(#paint2_linear_5_141)"/>
</g>
<mask id="mask1_5_141" style="mask-type:luminance" maskUnits="userSpaceOnUse" x="-30" y="-36" width="201" height="135">
<path d="M-29.9803 -35.7162H170.828V98.1642H-29.9803V-35.7162Z" fill="white"/>
</mask>
<g mask="url(#mask1_5_141)">
<mask id="mask2_5_141" style="mask-type:luminance" maskUnits="userSpaceOnUse" x="21" y="20" width="9" height="18">
<path d="M21.3628 20.4032H29.3268V37.8248H21.3628V20.4032Z" fill="white"/>
</mask>
<g mask="url(#mask2_5_141)">
<path d="M27.7275 23.7351C26.8222 22.4158 25.6578 21.2996 24.2918 20.4033C25.6192 21.4418 25.8421 23.164 25.2838 24.5213C25.3151 24.5653 25.3473 24.6087 25.3779 24.6533C25.9204 25.4456 26.3665 26.3926 26.7073 27.4427V27.4453C26.7073 27.4465 26.7087 27.4478 26.7087 27.449C27.3904 30.881 26.8999 33.4232 23.7791 36.2074C23.0676 36.8419 22.252 37.3797 21.3629 37.8248C23.1764 37.2863 24.8268 36.4508 26.1288 35.2891C27.6417 33.9402 28.5354 32.6481 28.9777 31.2835V31.2821C29.45 29.8316 29.4097 28.2976 29.0571 26.5284C28.7163 25.4758 28.27 24.5274 27.7275 23.7351Z" fill="#1F1D0D"/>
</g>
</g>
<mask id="mask3_5_141" style="mask-type:luminance" maskUnits="userSpaceOnUse" x="-30" y="-36" width="201" height="135">
<path d="M-29.9803 -35.7162H170.828V98.1642H-29.9803V-35.7162Z" fill="white"/>
</mask>
<g mask="url(#mask3_5_141)">
<mask id="mask4_5_141" style="mask-type:luminance" maskUnits="userSpaceOnUse" x="6" y="12" width="6" height="7">
<path d="M6.40271 12.988H11.4519V18.5548H6.40271V12.988Z" fill="white"/>
</mask>
<g mask="url(#mask4_5_141)">
<path d="M11.2715 12.988C9.86176 13.7275 8.32395 14.0476 6.40271 14.575C6.40408 14.587 6.67818 17.6297 11.4519 18.5549C11.0045 16.7451 10.9489 14.8569 11.2715 12.988Z" fill="#1F1D0D"/>
</g>
</g>
<path d="M26.5578 5.29239C19.5043 4.72906 17.475 11.2703 8.7525 13.7045C8.7537 13.7174 9.07911 17.4436 15.495 17.7519C20.7571 18.0055 25.2284 20.091 27.7273 23.7349C28.2699 24.5274 28.7161 25.4745 29.057 26.5245V26.527C29.057 26.5284 29.0582 26.5296 29.0582 26.5308C29.7399 29.963 29.2495 32.505 26.1286 35.2892C21.0025 39.8613 10.492 39.4147 5.78174 35.4675C9.60739 39.4913 15.0115 42 21.0015 42C32.5986 42 42 32.598 42 21.0002C42 11.2386 35.3397 3.03325 26.316 0.679525C26.2352 1.14708 25.9635 3.09435 26.5578 5.29239Z" fill="url(#paint3_linear_5_141)"/>
<path d="M26.5574 5.29224C19.5043 4.72942 17.4746 11.2712 8.75159 13.7047C12.0042 15.4519 14.7528 14.9172 17.9496 14.3825C20.1194 14.0197 22.4956 13.6568 25.3758 14.0073C34.4619 15.1137 40.0228 21.8187 39.1421 31.581C40.9582 28.474 42 24.859 42 21.0002C42 11.2386 35.3398 3.03326 26.3161 0.679538C26.2356 1.14675 25.9636 3.09385 26.5574 5.29224Z" fill="url(#paint4_linear_5_141)"/>
<mask id="mask5_5_141" style="mask-type:luminance" maskUnits="userSpaceOnUse" x="-30" y="-36" width="201" height="135">
<path d="M-29.9803 -35.7162H170.828V98.1642H-29.9803V-35.7162Z" fill="white"/>
</mask>
<g mask="url(#mask5_5_141)">
<path d="M26.316 0.679569C26.2357 1.14678 25.9637 3.09388 26.5575 5.29227C21.428 4.8829 18.9548 8.23128 14.6321 11.0242V11.0244C18.0156 10.9523 21.4192 9.54949 26.2271 10.135C35.3133 11.2412 42.9948 20.0297 39.1422 31.5811C40.9582 28.474 42 24.8591 42 21.0002C42 11.2386 35.3397 3.03329 26.316 0.679569Z" fill="url(#paint5_linear_5_141)"/>
</g>
<mask id="mask6_5_141" style="mask-type:luminance" maskUnits="userSpaceOnUse" x="-30" y="-36" width="201" height="135">
<path d="M-29.9803 -35.7162H170.828V98.1642H-29.9803V-35.7162Z" fill="white"/>
</mask>
<g mask="url(#mask6_5_141)">
<path d="M31.9201 25.8463C30.8989 22.0781 25.5943 17.4628 15.495 17.7519C20.7572 18.0056 25.2284 20.091 27.7273 23.7351C28.2698 24.5274 28.7161 25.4745 29.0569 26.5245V26.527C29.0569 26.5284 29.0581 26.5296 29.0581 26.531C29.7399 29.963 29.2495 32.505 26.1286 35.2892C24.0352 37.1565 21.0437 38.1863 17.916 38.4827C22.3093 38.8938 26.2436 37.2497 29.1709 34.806C32.3814 32.1258 32.7101 28.7615 31.9201 25.8463Z" fill="url(#paint6_linear_5_141)"/>
</g>
<g opacity="0.800003">
<path d="M26.3161 0.679538C26.304 0.749225 26.2879 0.852551 26.2708 0.984028C35.0976 3.64121 41.5277 11.8314 41.5277 21.5249C41.5277 25.0547 40.6739 28.3845 39.1632 31.3212C39.1563 31.4077 39.1501 31.494 39.1422 31.581C40.9583 28.474 42.0001 24.859 42.0001 21.0002C42.0001 11.2386 35.3397 3.03326 26.3161 0.679538Z" fill="url(#paint7_radial_5_141)"/>
</g>
</g>
</g>
<path d="M62.528 11.984C62.528 11.8773 62.56 11.792 62.624 11.728C62.7093 11.6427 62.8053 11.6 62.912 11.6H65.856C65.9627 11.6 66.048 11.6427 66.112 11.728C66.1973 11.792 66.24 11.8773 66.24 11.984V33.616C66.24 33.7227 66.1973 33.8187 66.112 33.904C66.048 33.968 65.9627 34 65.856 34H62.912C62.8053 34 62.7093 33.968 62.624 33.904C62.56 33.8187 62.528 33.7227 62.528 33.616V24.464C62.528 24.3573 62.4747 24.304 62.368 24.304H54.208C54.1013 24.304 54.048 24.3573 54.048 24.464V33.616C54.048 33.7227 54.0053 33.8187 53.92 33.904C53.856 33.968 53.7707 34 53.664 34H50.72C50.6133 34 50.5173 33.968 50.432 33.904C50.368 33.8187 50.336 33.7227 50.336 33.616V11.984C50.336 11.8773 50.368 11.792 50.432 11.728C50.5173 11.6427 50.6133 11.6 50.72 11.6H53.664C53.7707 11.6 53.856 11.6427 53.92 11.728C54.0053 11.792 54.048 11.8773 54.048 11.984V20.944C54.048 21.0507 54.1013 21.104 54.208 21.104H62.368C62.4747 21.104 62.528 21.0507 62.528 20.944V11.984ZM77.303 34.256C75.6177 34.256 74.167 33.8293 72.951 32.976C71.7563 32.1227 70.9137 30.9387 70.423 29.424C70.0603 28.272 69.879 27.056 69.879 25.776C69.879 24.4107 70.0497 23.1947 70.391 22.128C70.8817 20.6347 71.735 19.472 72.951 18.64C74.167 17.808 75.6283 17.392 77.335 17.392C78.9563 17.392 80.3537 17.808 81.527 18.64C82.7217 19.472 83.5643 20.624 84.055 22.096C84.439 23.12 84.631 24.336 84.631 25.744C84.631 27.088 84.4497 28.304 84.087 29.392C83.5963 30.9067 82.7537 32.1013 81.559 32.976C80.3643 33.8293 78.9457 34.256 77.303 34.256ZM77.303 31.056C78.0923 31.056 78.7643 30.832 79.319 30.384C79.895 29.936 80.311 29.3067 80.567 28.496C80.7803 27.792 80.887 26.896 80.887 25.808C80.887 24.656 80.7803 23.76 80.567 23.12C80.3323 22.3093 79.927 21.6907 79.351 21.264C78.775 20.816 78.071 20.592 77.239 20.592C76.4497 20.592 75.767 20.816 75.191 21.264C74.615 21.6907 74.199 22.3093 73.943 23.12C73.7297 23.8667 73.623 24.7627 73.623 25.808C73.623 26.8533 73.7297 27.7493 73.943 28.496C74.1777 29.3067 74.583 29.936 75.159 30.384C75.7563 30.832 76.471 31.056 77.303 31.056ZM91.1998 34C90.9651 34 90.8158 33.8933 90.7518 33.68L86.1758 18.064L86.1438 17.936C86.1438 17.7227 86.2611 17.616 86.4958 17.616H89.5358C89.7704 17.616 89.9198 17.7227 89.9838 17.936L92.6398 28.624C92.6611 28.688 92.6931 28.72 92.7358 28.72C92.7784 28.72 92.8104 28.688 92.8318 28.624L95.6158 17.936C95.6798 17.7227 95.8291 17.616 96.0638 17.616H98.7198C98.9544 17.616 99.1038 17.7227 99.1678 17.936L102.016 28.624C102.037 28.688 102.069 28.72 102.112 28.72C102.154 28.72 102.186 28.688 102.208 28.624L105.056 17.936C105.12 17.7227 105.269 17.616 105.504 17.616L108.512 17.68C108.64 17.68 108.725 17.7227 108.768 17.808C108.832 17.872 108.853 17.968 108.832 18.096L104.224 33.68C104.16 33.8933 104.021 34 103.808 34H100.736C100.501 34 100.352 33.8933 100.288 33.68L97.4718 23.92C97.4504 23.856 97.4184 23.824 97.3758 23.824C97.3331 23.824 97.3011 23.856 97.2798 23.92L94.6878 33.68C94.6238 33.8933 94.4744 34 94.2398 34H91.1998ZM112.087 34C111.98 34 111.884 33.968 111.799 33.904C111.735 33.8187 111.703 33.7227 111.703 33.616V11.984C111.703 11.8773 111.735 11.792 111.799 11.728C111.884 11.6427 111.98 11.6 112.087 11.6H115.031C115.137 11.6 115.223 11.6427 115.287 11.728C115.372 11.792 115.415 11.8773 115.415 11.984V33.616C115.415 33.7227 115.372 33.8187 115.287 33.904C115.223 33.968 115.137 34 115.031 34H112.087ZM121.471 15.408C120.81 15.408 120.266 15.1947 119.839 14.768C119.412 14.3413 119.199 13.7973 119.199 13.136C119.199 12.4747 119.412 11.9307 119.839 11.504C120.266 11.0773 120.81 10.864 121.471 10.864C122.132 10.864 122.676 11.0773 123.103 11.504C123.53 11.9307 123.743 12.4747 123.743 13.136C123.743 13.7973 123.53 14.3413 123.103 14.768C122.676 15.1947 122.132 15.408 121.471 15.408ZM119.935 34C119.828 34 119.732 33.968 119.647 33.904C119.583 33.8187 119.551 33.7227 119.551 33.616V18C119.551 17.8933 119.583 17.808 119.647 17.744C119.732 17.6587 119.828 17.616 119.935 17.616H122.879C122.986 17.616 123.071 17.6587 123.135 17.744C123.22 17.808 123.263 17.8933 123.263 18V33.616C123.263 33.7227 123.22 33.8187 123.135 33.904C123.071 33.968 122.986 34 122.879 34H119.935ZM126.651 34C126.502 34 126.395 33.9573 126.331 33.872C126.289 33.7653 126.31 33.648 126.395 33.52L131.579 25.904C131.622 25.84 131.622 25.776 131.579 25.712L126.395 18.128C126.353 18.0427 126.331 17.968 126.331 17.904C126.331 17.7333 126.438 17.648 126.651 17.648H129.787C129.979 17.648 130.129 17.7333 130.235 17.904L133.563 22.832C133.606 22.8747 133.649 22.896 133.691 22.896C133.734 22.896 133.766 22.8747 133.787 22.832L137.115 17.904C137.222 17.7333 137.371 17.648 137.563 17.648H140.923C141.073 17.648 141.169 17.7013 141.211 17.808C141.275 17.8933 141.265 18 141.179 18.128L135.995 25.712C135.974 25.776 135.974 25.84 135.995 25.904L141.179 33.52C141.222 33.6053 141.243 33.68 141.243 33.744C141.243 33.9147 141.137 34 140.923 34H137.787C137.595 34 137.446 33.9147 137.339 33.744L134.011 28.816C133.99 28.7733 133.958 28.752 133.915 28.752C133.873 28.752 133.83 28.7733 133.787 28.816L130.459 33.744C130.353 33.9147 130.203 34 130.011 34H126.651Z" fill="#1F1D0D"/>
</g>
<defs>
<linearGradient id="paint0_linear_5_141" x1="30.4753" y1="29.4624" x2="5.69419" y2="11.8471" gradientUnits="userSpaceOnUse">
<stop stop-color="#F7FF62"/>
<stop offset="1" stop-color="#1D1D1B"/>
</linearGradient>
<linearGradient id="paint1_linear_5_141" x1="16.5837" y1="33.7678" x2="15.2003" y2="0.221106" gradientUnits="userSpaceOnUse">
<stop stop-color="#F7FF62"/>
<stop offset="1" stop-color="#1D1D1B"/>
</linearGradient>
<linearGradient id="paint2_linear_5_141" x1="32.722" y1="32.9828" x2="15.221" y2="18.1901" gradientUnits="userSpaceOnUse">
<stop stop-color="#F7FF62"/>
<stop offset="1" stop-color="#1D1D1B"/>
</linearGradient>
<linearGradient id="paint3_linear_5_141" x1="13.5984" y1="40.9428" x2="34.2806" y2="4.3819" gradientUnits="userSpaceOnUse">
<stop stop-color="#F7FF62"/>
<stop offset="1" stop-color="#1D1D1B"/>
</linearGradient>
<linearGradient id="paint4_linear_5_141" x1="23.8011" y1="22.9028" x2="34.2787" y2="4.38091" gradientUnits="userSpaceOnUse">
<stop stop-color="#F7FF62"/>
<stop offset="1" stop-color="#1D1D1B"/>
</linearGradient>
<linearGradient id="paint5_linear_5_141" x1="25.4543" y1="23.838" x2="35.932" y2="5.31614" gradientUnits="userSpaceOnUse">
<stop stop-color="#F7FF62"/>
<stop offset="1" stop-color="#1D1D1B"/>
</linearGradient>
<linearGradient id="paint6_linear_5_141" x1="16.301" y1="37.5691" x2="34.4032" y2="5.56914" gradientUnits="userSpaceOnUse">
<stop stop-color="#F7FF62"/>
<stop offset="1" stop-color="#1D1D1B"/>
</linearGradient>
<radialGradient id="paint7_radial_5_141" cx="0" cy="0" r="1" gradientUnits="userSpaceOnUse" gradientTransform="translate(34.1355 16.1303) scale(12.2587 12.2594)">
<stop stop-color="#F7FF62"/>
<stop offset="1" stop-color="#1D1D1B"/>
</radialGradient>
<clipPath id="clip0_5_141">
<rect width="142" height="42" fill="white"/>
</clipPath>
<clipPath id="clip1_5_141">
<rect width="42" height="42" fill="white"/>
</clipPath>
<clipPath id="clip2_5_141">
<rect width="42" height="42" fill="white"/>
</clipPath>
</defs>
</svg>
